{"title":"G.I. Joe Retaliation-(2013)-Dual Audio-BDRip-Hindi+English-720p-","uid":8750512,"size":2991573510,"categoryP":"video","categoryS":"hd___movies","magnet":"?xt=urn:btih:f5da9023ffeeadadac21a1b6216cb23179a612fd&amp;dn=G.I.+Joe+Retaliation-%282013%29-Dual+Audio-BDRip-Hindi%2BEnglish-720p-&amp;tr=udp%3A%2F%2Ftracker.openbittorrent.com%3A80&amp;tr=udp%3A%2F%2Fopen.demonii.com%3A1337&amp;tr=udp%3A%2F%2Ftracker.coppersurfer.tk%3A6969&amp;tr=udp%3A%2F%2Fexodus.desync.com%3A6969","seeders":0,"leechers":1,"uploader":"NokiaAnir","files":13,"time":1375019712,"description":"General\nFormat                           : Matroska\nFile size                        : 2.78 GiB\nDuration                         : 1h 50mn\nOverall bit rate                 : 3 605 Kbps\nEncoded date                     : UTC 2013-07-28 11:27:06\n\n\nVideo\nID                               : 5\nFormat                           : AVC\nFormat/Info                      : Advanced Video Codec\nFormat profile                   : &lt;a class=&quot;__cf_email__&quot; href=&quot;/cdn-cgi/l/email-protection&quot; data-cfemail=&quot;c28aaba5aa828ef6ecf3&quot;&gt;[email&amp;#160;protected]&lt;/a&gt;&lt;script cf-hash='f9e31' type=&quot;text/javascript&quot;&gt;\n/* &lt;![CDATA[ */!function(){try{var t=&quot;currentScript&quot;in document?document.currentScript:function(){for(var t=document.getElementsByTagName(&quot;script&quot;),e=t.length;e--;)if(t[e].getAttribute(&quot;cf-hash&quot;))return t[e]}();if(t&amp;&amp;t.previousSibling){var e,r,n,i,c=t.previousSibling,a=c.getAttribute(&quot;data-cfemail&quot;);if(a){for(e=&quot;&quot;,r=parseInt(a.substr(0,2),16),n=2;a.length-n;n+=2)i=parseInt(a.substr(n,2),16)^r,e+=String.fromCharCode(i);e=document.createTextNode(e),c.parentNode.replaceChild(e,c)}}}catch(u){}}();/* ]]&gt; */&lt;/script&gt;\nFormat settings, CABAC           : Yes\nFormat settings, ReFrames        : 5 frames\nMuxing mode                      : Header stripping\nCodec ID                         : V_MPEG4/ISO/AVC\nDuration                         : 1h 50mn\nBit rate                         : 2 766 Kbps\nWidth                            : 1 280 pixels\nHeight                           : 534 pixels\nDisplay aspect ratio             : 2.35:1\nFrame rate                       : 23.976 fps\nColor space                      : YUV\nChroma subsampling               : 4:2:0\nBit depth                        : 8 bits\nScan type                        : Progressive\nBits/(Pixel*Frame)               : 0.169\nStream size                      : 2.13 GiB (77%)\nWriting library                  : x264 core 133 r2334 a3ac64b\nLanguage                         : English\n\nAudio #\n1\nID                               : 1\nFormat                           : AC-3\nFormat/Info                      : Audio Coding 3\nMode extension                   : CM (complete main)\nMuxing mode                      : Header stripping\nCodec ID                         : A_AC3\nDuration                         : 1h 50mn\nBit rate mode                    : Constant\nBit rate                         : 640 Kbps\nChannel(s)                       : 6 channels\nChannel positions                : Front: L C R, Side: L R, LFE\nSampling rate                    : 48.0 KHz\nBit depth                        : 16 bits\nCompression mode                 : Lossy\nStream size                      : 505 MiB (18%)\nTitle                            : DD5.1 DVD @ 640 Kbps\nLanguage                         : Hindi\n\n\nAudio #\n2\nID                               : 7\nFormat                           : MPEG Audio\nFormat version                   : Version 1\nFormat profile                   : Layer 3\nMode                             : Joint stereo\nMode extension                   : MS Stereo\nMuxing mode                      : Header stripping\nCodec ID                         : A_MPEG/L3\nCodec ID/Hint                    : MP3\nDuration                         : 1h 50mn\nBit rate mode                    : Constant\nBit rate                         : 128 Kbps\nChannel(s)                       : 2 channels\nSampling rate                    : 48.0 KHz\nCompression mode                 : Lossy\nStream size                      : 101 MiB (4%)\nWriting library                  : LAME3.97\n","torrent":{"xt":"urn:btih:f5da9023ffeeadadac21a1b6216cb23179a612fd","amp;dn":"G.I.+Joe+Retaliation-%282013%29-Dual+Audio-BDRip-Hindi%2BEnglish-720p-","amp;tr":["udp%3A%2F%2Ftracker.openbittorrent.com%3A80","udp%3A%2F%2Fopen.demonii.com%3A1337","udp%3A%2F%2Ftracker.coppersurfer.tk%3A6969","udp%3A%2F%2Fexodus.desync.com%3A6969"],"infoHash":"f5da9023ffeeadadac21a1b6216cb23179a612fd","infoHashBuffer":{"type":"Buffer","data":[245,218,144,35,255,238,173,173,172,33,161,182,33,108,178,49,121,166,18,253]},"announce":[],"urlList":[]}}